<svg xmlns="http://www.w3.org/2000/svg" fill-rule="evenodd" stroke-linejoin="round" stroke-miterlimit="2" clip-rule="evenodd" viewBox="0 0 32 32" id="warning">
  <path fill="url(#_Linear1)" d="M28,9.502c-0,-0.42 -0.263,-0.796 -0.658,-0.94c-1.581,-0.574 -2.633,-2.077 -2.633,-3.759c-0,-0.42 -0.263,-0.796 -0.659,-0.94c-3.24,-1.178 -7.708,-2.803 -7.708,-2.803c-0.221,-0.08 -0.463,-0.08 -0.684,0c0,0 -4.468,1.625 -7.708,2.803c-0.396,0.144 -0.659,0.52 -0.659,0.94c0,1.682 -1.052,3.185 -2.633,3.759c-0.395,0.144 -0.658,0.52 -0.658,0.94c0,2.483 0,5.822 0,8.424c0,2.88 1.378,5.585 3.706,7.279c3.241,2.357 7.706,5.604 7.706,5.604c0.35,0.255 0.826,0.255 1.176,-0c0,-0 4.465,-3.247 7.706,-5.604c2.328,-1.694 3.706,-4.399 3.706,-7.279c-0,-2.602 -0,-5.941 -0,-8.424Zm-14.902,0.187l-4.144,7.215c-0.601,1.045 -0.605,2.338 -0.011,3.387c0.598,1.059 1.711,1.709 2.913,1.709c2.529,-0 5.76,-0 8.288,-0c1.202,0 2.315,-0.65 2.913,-1.709c0.594,-1.049 0.59,-2.342 -0.011,-3.387l-4.144,-7.215c-0.602,-1.048 -1.708,-1.689 -2.902,-1.689c-1.194,0 -2.3,0.641 -2.902,1.689Zm2.902,7.811c0.552,-0 1,0.448 1,1c0,0.552 -0.448,1 -1,1c-0.552,0 -1,-0.448 -1,-1c0,-0.552 0.448,-1 1,-1Zm1,-2l0,-3c0,-0.552 -0.448,-1 -1,-1c-0.552,0 -1,0.448 -1,1l0,3c0,0.552 0.448,1 1,1c0.552,0 1,-0.448 1,-1Z"></path>
  <defs>
    <linearGradient id="_Linear1" x1="0" x2="1" y1="0" y2="0" gradientTransform="matrix(0 29.833 -23.8663 0 18.625 1)" gradientUnits="userSpaceOnUse">
      <stop offset="0" stop-color="#ff0000" class="stopColore25973 svgShape"></stop>
      <stop offset="1" stop-color="#c35252" class="stopColor8f52c3 svgShape"></stop>
    </linearGradient>
  </defs>
</svg>
